<svg viewBox="0 0 256 256" xmlns="http://www.w3.org/2000/svg">
  <defs>
    <style>
      .shield-border { fill: #F5E6D3; stroke: none; }
      .shield-left { fill: #6B8E23; stroke: none; }
      .shield-right { fill: #5C4033; stroke: none; }
      .tree { fill: #F5E6D3; }
      .text { font-family: 'Arial', sans-serif; font-weight: bold; fill: #F5E6D3; text-anchor: middle; }
      .title { font-size: 32px; letter-spacing: 2px; }
    </style>
  </defs>
  
  <!-- Outer Border (Light cream) -->
  <path d="M 128 16 C 128 16 72 48 72 112 C 72 160 128 224 128 224 C 128 224 184 160 184 112 C 184 48 128 16 128 16 Z" class="shield-border"/>
  
  <!-- Left half (Green) -->
  <path d="M 128 24 C 128 24 80 52 80 112 C 80 156 128 216 128 216 C 128 216 128 156 128 112 Z" class="shield-left"/>
  
  <!-- Right half (Brown) -->
  <path d="M 128 24 C 128 24 176 52 176 112 C 176 156 128 216 128 216 C 128 216 128 156 128 112 Z" class="shield-right"/>
  
  <!-- Tree - Main foliage circles -->
  <g transform="translate(128, 90)">
    <!-- Main crown -->
    <circle cx="0" cy="-28" r="18" class="tree"/>
    <!-- Left branch -->
    <circle cx="-20" cy="-12" r="15" class="tree"/>
    <!-- Right branch -->
    <circle cx="20" cy="-12" r="15" class="tree"/>
    <!-- Lower left -->
    <circle cx="-26" cy="2" r="12" class="tree"/>
    <!-- Lower right -->
    <circle cx="26" cy="2" r="12" class="tree"/>
    <!-- Trunk -->
    <rect x="-6" y="8" width="12" height="24" class="tree" rx="3"/>
    <!-- Small branches -->
    <line x1="-10" y1="12" x2="-18" y2="8" stroke="#F5E6D3" stroke-width="2.5" stroke-linecap="round"/>
    <line x1="10" y1="12" x2="18" y2="8" stroke="#F5E6D3" stroke-width="2.5" stroke-linecap="round"/>
    <!-- Leaf details -->
    <path d="M -8 -8 Q -4 -12 0 -8" stroke="#5C4033" stroke-width="1.5" fill="none" stroke-linecap="round"/>
    <path d="M 8 -8 Q 4 -12 0 -8" stroke="#5C4033" stroke-width="1.5" fill="none" stroke-linecap="round"/>
  </g>
  
  <!-- Text -->
  <text x="128" y="170" class="text title">FOREST</text>
  <text x="128" y="205" class="text title">GUARD</text>
</svg>